# Blender v2.93.5 OBJ File: ''
# www.blender.org
mtllib backdrop_yellow.mtl
o Cube_Cube.001
v -9.598147 0.000000 9.598147
v -9.598147 19.196295 9.598147
v -9.598147 0.000000 -9.598147
v -9.598147 19.196295 -9.598147
v 9.550395 0.000000 9.598147
v 9.550395 19.196295 9.598147
v 9.550395 0.000000 -9.598147
v 9.550395 19.196295 -9.598147
v -9.502643 0.095505 9.502643
v -9.502643 19.100790 9.502643
v -9.502643 0.095505 -9.502643
v -9.502643 19.100790 -9.502643
v 9.550395 0.095505 9.502643
v 9.550395 19.100790 9.502643
v 9.550395 0.095505 -9.502643
v 9.550395 19.100790 -9.502643
v -9.598147 0.000000 -9.598147
v -9.598147 0.000000 9.565992
v -9.598147 19.196295 9.565992
v -9.598147 19.196295 -9.598147
v 9.550395 0.000000 9.565992
v 9.550395 0.000000 -9.598147
v 9.550395 19.196295 -9.598147
v 9.550395 19.196295 9.565992
v -9.502643 0.095505 -9.502643
v -9.502643 0.095505 9.470809
v -9.502643 19.100790 9.470809
v -9.502643 19.100790 -9.502643
v 9.550395 0.095505 9.470809
v 9.550395 0.095505 -9.502643
v 9.550395 19.100790 -9.502643
v 9.550395 19.100790 9.470809
v -9.598147 0.000000 9.598147
v -9.598147 19.196295 9.598147
v -9.598147 19.196295 -9.598147
v -9.598147 0.000000 -9.598147
v 9.550395 19.196295 -9.598147
v 9.550395 0.000000 -9.598147
v 9.550395 19.196295 9.598147
v 9.550395 0.000000 9.598147
v -9.502643 0.095505 9.502643
v -9.502643 19.100790 9.502643
v -9.502643 19.100790 -9.502643
v -9.502643 0.095505 -9.502643
v 9.550395 19.100790 -9.502643
v 9.550395 0.095505 -9.502643
v 9.550395 19.100790 9.502643
v 9.550395 0.095505 9.502643
v -9.502643 0.095505 9.470809
v -9.502643 19.100790 9.470809
v -9.502643 0.095505 -9.502643
v -9.502643 19.100790 -9.502643
v -9.598147 19.196295 9.565992
v -9.598147 0.000000 9.565992
v -9.598147 19.196295 -9.598147
v -9.598147 0.000000 -9.598147
v -9.502643 0.095505 9.470809
v -9.502643 19.100790 9.470809
v -9.502643 0.095505 -9.502643
v -9.502643 19.100790 -9.502643
v -9.598147 19.196295 9.565992
v -9.598147 0.000000 9.565992
v -9.598147 19.196295 -9.598147
v -9.598147 0.000000 -9.598147
vt 0.000000 0.000000
vt 0.000000 0.000000
vt 0.000000 0.000000
vt 0.000000 0.000000
vt 0.625000 0.250000
vt 0.625000 0.250000
vt 0.625000 0.500000
vt 0.625000 0.500000
vt 0.625000 0.750000
vt 0.625000 0.750000
vt 0.625000 1.000000
vt 0.625000 1.000000
vt 0.125000 0.749581
vt 0.375000 0.749581
vt 0.375000 0.750000
vt 0.125000 0.750000
vt 0.625000 0.749581
vt 0.875000 0.749581
vt 0.875000 0.750000
vt 0.000000 0.000000
vt 0.000000 0.000000
vt 0.000000 0.000000
vt 0.000000 0.000000
vt 0.625000 0.250000
vt 0.625000 0.500000
vt 0.625000 0.500000
vt 0.625000 0.250000
vt 0.625000 0.750000
vt 0.625000 1.000000
vt 0.625000 1.000000
vt 0.625000 0.750000
vt 0.125000 0.749581
vt 0.125000 0.750000
vt 0.375000 0.750000
vt 0.375000 0.749581
vt 0.625000 0.749581
vt 0.875000 0.750000
vt 0.875000 0.749581
vt 0.375000 0.500000
vt 0.375000 0.500000
vt 0.375000 0.500000
vt 0.375000 0.500000
vt 0.375000 0.750000
vt 0.375000 0.750000
vt 0.625000 0.500000
vt 0.625000 0.500000
vt 0.875000 0.500000
vt 0.875000 0.500000
vt 0.125000 0.500000
vt 0.125000 0.500000
vt 0.625000 0.000000
vt 0.625000 0.000419
vt 0.625000 0.000419
vt 0.625000 0.000000
vt 0.625000 0.250000
vt 0.625000 0.250000
vt 0.875000 0.500000
vt 0.875000 0.500000
vt 0.125000 0.500000
vt 0.125000 0.500000
vt 0.625000 0.000000
vt 0.625000 0.000000
vt 0.625000 0.000419
vt 0.625000 0.000419
vt 0.625000 0.250000
vt 0.625000 0.250000
vt 0.375000 0.000419
vt 0.375000 0.000419
vt 0.375000 0.250000
vt 0.375000 0.250000
vt 0.375000 0.000419
vt 0.625000 0.000419
vt 0.625000 0.250000
vt 0.375000 0.250000
vt 0.375000 0.000000
vt 0.375000 0.000000
vt 0.375000 0.000419
vt 0.375000 0.250000
vt 0.375000 0.250000
vt 0.375000 0.000419
vt 0.375000 0.000419
vt 0.375000 0.250000
vt 0.625000 0.250000
vt 0.625000 0.000419
vt 0.375000 0.000000
vt 0.375000 0.000000
vt 0.375000 0.500000
vt 0.375000 0.500000
vt 0.375000 1.000000
vt 0.375000 1.000000
vt 0.375000 0.250000
vt 0.375000 0.250000
vt 0.000000 0.000000
vt 0.000000 0.000000
vt 0.000000 0.000000
vt 0.000000 0.000000
vt 0.375000 1.000000
vt 0.375000 1.000000
vt 0.375000 0.250000
vt 0.375000 0.250000
vt 0.000000 0.000000
vt 0.000000 0.000000
vt 0.000000 0.000000
vt 0.000000 0.000000
vn 0.0000 0.0000 1.0000
vn 0.0000 -1.0000 0.0000
vn 0.0000 1.0000 0.0000
vn 1.0000 0.0000 0.0000
vn -1.0000 0.0000 0.0000
vn 0.0000 0.0000 -1.0000
usemtl Material.003
s off
f 63/1/1 20/2/1 4/3/1 35/4/1
f 35/5/1 4/6/1 8/7/1 37/8/1
f 39/9/1 6/10/1 2/11/1 34/12/1
f 18/13/2 21/14/2 5/15/2 1/16/2
f 24/17/3 19/18/3 2/19/3 6/10/3
f 60/20/1 43/21/1 12/22/1 28/23/1
f 43/24/1 45/25/1 16/26/1 12/27/1
f 47/28/1 42/29/1 10/30/1 14/31/1
f 26/32/3 9/33/3 13/34/3 29/35/3
f 32/36/2 14/31/2 10/37/2 27/38/2
f 37/8/1 8/7/1 16/26/1 45/25/1
f 22/39/1 7/40/1 15/41/1 30/42/1
f 24/17/4 6/10/4 14/31/4 32/36/4
f 40/43/1 5/15/1 13/34/1 48/44/1
f 8/7/1 23/45/1 31/46/1 16/26/1
f 23/45/4 24/17/4 32/36/4 31/46/4
f 5/15/4 21/14/4 29/35/4 13/34/4
f 21/14/4 22/39/4 30/42/4 29/35/4
f 16/26/1 31/46/1 28/47/1 12/48/1
f 31/46/2 32/36/2 27/38/2 28/47/2
f 11/49/1 25/50/1 30/42/1 15/41/1
f 25/50/3 26/32/3 29/35/3 30/42/3
f 42/51/1 58/52/1 27/53/1 10/54/1
f 58/52/1 60/55/1 28/56/1 27/53/1
f 8/7/1 4/57/1 20/58/1 23/45/1
f 23/45/3 20/58/3 19/18/3 24/17/3
f 3/59/1 7/40/1 22/39/1 17/60/1
f 17/60/2 22/39/2 21/14/2 18/13/2
f 34/61/1 2/62/1 19/63/1 61/64/1
f 61/64/1 19/63/1 20/65/1 63/66/1
f 18/67/1 62/68/1 64/69/1 17/70/1
f 54/71/5 53/72/5 55/73/5 56/74/5
f 1/75/1 33/76/1 62/68/1 18/67/1
f 33/76/5 34/61/5 61/64/5 62/68/5
f 26/77/1 25/78/1 59/79/1 57/80/1
f 49/81/4 51/82/4 52/83/4 50/84/4
f 9/85/1 26/77/1 57/80/1 41/86/1
f 41/86/4 57/80/4 58/52/4 42/51/4
f 6/10/1 39/9/1 47/28/1 14/31/1
f 39/9/4 40/43/4 48/44/4 47/28/4
f 7/40/1 38/87/1 46/88/1 15/41/1
f 38/87/4 37/8/4 45/25/4 46/88/4
f 13/34/1 9/89/1 41/90/1 48/44/1
f 48/44/6 41/90/6 42/29/6 47/28/6
f 11/91/1 15/41/1 46/88/1 44/92/1
f 44/92/1 46/88/1 45/25/1 43/24/1
f 25/93/1 11/94/1 44/95/1 59/96/1
f 59/96/1 44/95/1 43/21/1 60/20/1
f 5/15/1 40/43/1 33/97/1 1/98/1
f 40/43/1 39/9/1 34/12/1 33/97/1
f 3/99/1 36/100/1 38/87/1 7/40/1
f 36/100/6 35/5/6 37/8/6 38/87/6
f 17/101/1 64/102/1 36/103/1 3/104/1
f 64/102/1 63/1/1 35/4/1 36/103/1
f 49/81/1 50/84/1 58/52/1 57/80/1
f 52/83/1 51/82/1 59/79/1 60/55/1
f 51/82/1 49/81/1 57/80/1 59/79/1
f 50/84/1 52/83/1 60/55/1 58/52/1
f 53/72/1 54/71/1 62/68/1 61/64/1
f 56/74/1 55/73/1 63/66/1 64/69/1
f 54/71/1 56/74/1 64/69/1 62/68/1
f 55/73/1 53/72/1 61/64/1 63/66/1
